#!OML:ASF H:\Terrain\Patient Classification 1\Walking\liu\liu.ASF
:FULLY-SPECIFIED
:DEGREES
1
root 7.46979 15.9909 -36.6099 6.97364 1.17677 -3.42769
lowerback -4.02947 0.124717 0.686617
upperback -1.74341 0.122466 2.40941
thorax 0.46583 0.0663449 2.09235
lowerneck -18.3092 -4.94712 -12.866
upperneck 13.9808 -6.45508 16.5981
head 8.36631 -2.21315 7.00226
rclavicle 9.405e-15 1.19271e-15
rhumerus -39.2962 17.4621 -84.4896
rradius 56.9177
rwrist -29.7836
rhand -32.5089 -26.7042
rfingers 7.12502
rthumb -5.7401 -56.6064
lclavicle 9.405e-15 1.19271e-15
lhumerus -36.6135 -3.05608 86.2016
lradius 27.605
lwrist 7.3759
lhand -13.2527 -23.6778
lfingers 7.12502
lthumb 12.8496 5.90672
rfemur -9.10523 4.99331 29.8867
rtibia 23.7929
rfoot 0.0 0.0
rtoes 0.0
lfemur -40.6314 5.96489 -16.4186
ltibia 41.7651
lfoot -14.4396 7.79462
ltoes -11.6514
2
root 7.49624071086 15.9760471885 -36.1553619958 6.95119653046 0.290133168178 -3.65726593809
lowerback -4.84985066043 0.42286918555 0.829630131919
upperback -1.44808043725 0.484680850935 2.59626034208
thorax 1.21504416941 0.244912894327 2.23018145525
lowerneck -18.1968918507 -4.96265048972 -13.747985012
upperneck 13.9398769383 -6.36800349817 17.2227769476
head 8.37409520044 -2.17109015375 7.3993572289
rclavicle 6.12488753538e-15 1.94189641706e-15
rhumerus -39.078867043 17.9150513406 -84.4861359205
rradius 58.7915104613
rwrist -33.5620127241
rhand -31.3411684361 -29.2048138066
rfingers 7.12502
rthumb -4.61257830626 -59.1345658059
lclavicle 6.12488753538e-15 1.94189641706e-15
lhumerus -36.6940894568 -4.36148262447 87.7673790226
lradius 28.0489440668
lwrist 7.76786149751
lhand -11.9569697801 -22.6346090466
lfingers 7.12502
lthumb 14.0984395905 6.86703904907
rfemur -6.13876116525 5.39006276313 30.1121115517
rtibia 21.7127632643
rfoot -0.609952015649 -0.101395634739
rtoes -0.284595519635
lfemur -40.9640655682 4.95038408224 -15.5052075666
ltibia 34.8648709122
lfoot -13.7588935691 7.7260038806
ltoes -10.4537347321
3
root 7.5147738992 15.9651304158 -35.6859950171 6.96834341551 -0.892351428717 -3.8032114745
lowerback -5.30576903497 0.47108637261 0.740773519577
upperback -1.32620534483 0.541873570038 2.41245964471
thorax 1.59389177523 0.271792567322 2.10003535766
lowerneck -19.5776029237 -5.0033243122 -11.980572754
upperneck 15.3811206443 -6.66200641843 15.8183925421
head 9.03150609683 -2.26002815477 6.58158147294
rclavicle 1.81007185741e-14 1.0642790193e-14
rhumerus -39.2709788544 18.2058114279 -85.8812555266
rradius 60.196381186
rwrist -34.6592590126
rhand -31.5303428584 -31.3989785667
rfingers 7.12502
rthumb -4.79523827884 -61.3246696882
lclavicle 1.81007185741e-14 1.0642790193e-14
lhumerus -37.6391015617 -6.05067459439 88.1640809208
lradius 28.9585640681
lwrist 7.91423534793
lhand -10.4768233569 -22.5734543568
lfingers 7.12502
lthumb 15.5245109944 6.82322621559
rfemur -2.92982710527 6.30903588244 30.2322974965
rtibia 19.0597216172
rfoot -20.5693950349 -3.13576538992
rtoes -8.5812421008
lfemur -40.7230996456 3.45482939493 -13.8523111358
ltibia 28.3044421398
lfoot -13.7071694539 8.45414441117
ltoes -12.6052698798
4
root 7.56021153263 15.958145821 -35.2000036307 6.87364264904 -2.31915408309 -4.27412360381
lowerback -5.7085203017 0.72429453279 1.08094529641
upperback -1.1808239716 0.84052497224 2.64752730535
thorax 1.96037864958 0.420588490801 2.17936621598
lowerneck -19.7633420479 -4.95226304981 -11.4631894707
upperneck 15.601011034 -6.60138649828 15.1255300874
head 9.08088932336 -2.25756773558 6.25272236852
rclavicle -4.6852459187e-15 -6.18835965132e-15
rhumerus -39.9073561908 18.8009617925 -86.7846984625
rradius 61.4579837551
rwrist -34.9700507448
rhand -31.1599205294 -29.7917413776
rfingers 7.12502
rthumb -4.43751994473 -59.7252360851
lclavicle -4.6852459187e-15 -6.18835965132e-15
lhumerus -38.8392874101 -6.85449458123 89.0653193996
lradius 29.7730491938
lwrist 7.14519648672
lhand -8.31656976923 -22.3550456825
lfingers 7.12502
lthumb 17.6041535992 6.86761501769
rfemur 1.04354094088 6.12815456562 30.4674615881
rtibia 15.271232614
rfoot -20.5898635916 -2.13302228882
rtoes -7.51108120498
lfemur -40.5275202514 1.82149328918 -11.5777423119
ltibia 23.5045697813
lfoot -14.2266870705 11.0482014973
ltoes -14.4396635995
5
root 7.59705592516 15.9067263861 -34.6996576751 6.98033706686 -3.93275876205 -5.10701414523
lowerback -5.99639231039 1.13785946364 1.54747990989
upperback -1.33585677135 1.35011868296 3.01108418674
thorax 1.94801680727 0.676704325798 2.33450780389
lowerneck -19.4966422253 -5.0039957034 -12.2353008044
upperneck 15.6722439093 -6.49998704468 15.2080160764
head 9.06930181196 -2.26058683691 6.43427416351
rclavicle 3.1790536706e-14 5.51842745192e-15
rhumerus -41.1843123368 19.0948963586 -87.7541190517
rradius 62.4584535648
rwrist -34.6378211802
rhand -30.7034539816 -33.3496748885
rfingers 7.12502
rthumb -3.99681035431 -63.2919192776
lclavicle 3.1790536706e-14 5.51842745192e-15
lhumerus -39.6525927028 -7.78173386741 89.9630729705
lradius 28.9040081661
lwrist 6.98758541633
lhand -7.16041294313 -22.9211460037
lfingers 7.12502
lthumb 18.7164930713 6.1983315299
rfemur 4.49071527444 6.31176183124 31.0643755056
rtibia 12.3018724962
rfoot -19.8461540757 -1.44149430528
rtoes -5.2980399188
lfemur -40.0311554539 -0.18269099325 -8.39041616911
ltibia 19.3993811944
lfoot -13.9725363574 14.747978844
ltoes -14.4225827982
6
root 7.61971099368 15.8990998822 -34.206272215 8.57098751641 -6.93735081857 -6.86555644702
lowerback -7.47022639212 2.12595938993 3.51817934669
upperback -1.68403536935 2.47288966931 2.81957612918
thorax 2.46746610098 1.245539962 1.17258990652
lowerneck -20.0496516401 -4.74748503608 -11.0544877373
upperneck 16.2168632723 -6.39761313432 14.7390884839
head 9.28102163051 -2.15657443241 6.09077242517
rclavicle -1.98499106212e-14 -1.42837423109e-14
rhumerus -41.8563668722 18.9675307741 -90.0303359186
rradius 62.7391063472
rwrist -34.7207496837
rhand -30.8237094999 -31.95629064
rfingers 7.12502
rthumb -4.11293748754 -61.896321749
lclavicle -1.98499106212e-14 -1.42837423109e-14
lhumerus -40.778620958 -9.51712761591 89.887267526
lradius 29.2022771979
lwrist 7.2062665175
lhand -7.75289443473 -22.5293310769
lfingers 7.12502
lthumb 18.1465530475 6.64413032528
rfemur 7.03484274459 8.68928376911 32.0862029839
rtibia 8.06192555159
rfoot -17.291146528 -1.01192552523
rtoes -7.32693798042
lfemur -41.2653767975 -0.481267221258 -4.24215757127
ltibia 18.5751596849
lfoot -16.4162441295 18.1991405459
ltoes -11.4078126143
7
root 7.72195431825 15.8239330608 -33.6559652148 8.17205234586 -6.29378117596 -7.18804444546
lowerback -7.9439556521 1.70785935466 4.35509654839
upperback -1.33047539198 1.80170874674 2.82039630692
thorax 3.11890292663 0.926310443753 0.670358011644
lowerneck -20.0880052103 -4.75574879622 -11.1999489232
upperneck 16.0491162733 -6.4253539639 15.1083148651
head 9.25617458502 -2.14271407732 6.24246966889
rclavicle -8.26729847352e-15 1.32698386092e-15
rhumerus -42.3105831254 19.3691403694 -91.2659380141
rradius 62.6555152449
rwrist -34.1353027421
rhand -30.2013426158 -29.5266180814
rfingers 7.12502
rthumb -3.51191486412 -59.477474853
lclavicle -8.26729847352e-15 1.32698386092e-15
lhumerus -41.4574517157 -9.94000426496 90.0784707846
lradius 28.5085092216
lwrist 6.40317686393
lhand -8.60538692554 -22.4599046654
lfingers 7.12502
lthumb 17.3262863399 6.78779450552
rfemur 13.1652647982 7.18796364062 32.2737376572
rtibia 0.446198403425
rfoot -13.3925758053 -1.86770543207
rtoes -12.9058199981
lfemur -41.6246476357 -0.0976144749462 -4.79504247201
ltibia 18.686131268
lfoot -15.2953728687 16.7916248182
ltoes -13.4973171905
8
root 7.82174144181 15.7826839154 -33.1031205369 7.48800979869 -7.21184735009 -7.22062320662
lowerback -7.45544227134 1.76469825562 4.19891720013
upperback -1.20643080137 1.90276449182 3.23702302117
thorax 2.95803090535 0.972822018096 1.18012174419
lowerneck -19.71939122 -4.70347420565 -11.7613384599
upperneck 15.8217639263 -6.16474614623 14.9782902589
head 9.08355673664 -2.08725037885 6.32191937225
rclavicle 1.01849778369e-14 1.63167538888e-16
rhumerus -43.2555246081 19.9047494634 -91.8472237945
rradius 62.0448383772
rwrist -32.5724970967
rhand -30.2973543882 -30.2888784348
rfingers 7.12502
rthumb -3.60463566372 -60.2380761049
lclavicle 1.01849778369e-14 1.63167538888e-16
lhumerus -42.2423475126 -9.15938537699 90.7365204563
lradius 27.2785014971
lwrist 4.72006988697
lhand -9.15862581137 -22.3966820632
lfingers 7.12502
lthumb 16.7937122308 6.89704176774
rfemur 16.3311752715 7.18447666269 31.6757326277
rtibia 0.00174581204393
rfoot -11.6985505176 -0.769790090499
rtoes -15.5852182032
lfemur -40.5479374046 2.16724414208 -6.45422740863
ltibia 19.3511807741
lfoot -14.9147293587 14.4631301139
ltoes -13.9887058002
9
root 7.9240834888 15.7432443453 -32.5212350498 7.53346827128 -7.89755080517 -7.13828553144
lowerback -8.00837762489 1.61133966122 3.92396800929
upperback -1.04908398475 1.66976745489 3.41739824419
thorax 3.41427544551 0.857948984297 1.51868992647
lowerneck -20.4639291697 -4.54269469493 -11.7265487645
upperneck 16.3278539253 -5.88512461885 14.7715561886
head 9.3386441936 -1.94203144952 6.3016823331
rclavicle -1.15317127164e-14 1.53215206664e-14
rhumerus -43.8544673793 20.4685707607 -92.7250275858
rradius 61.3421140319
rwrist -30.3339759162
rhand -30.5451627558 -31.3294113437
rfingers 7.12502
rthumb -3.84390076699 -61.2745117457
lclavicle -1.15317127164e-14 1.53215206664e-14
lhumerus -42.845217272 -8.29931286157 90.7557775775
lradius 26.418208254
lwrist 3.64837911571
lhand -10.1695622955 -24.209134675
lfingers 7.12502
lthumb 15.8204148593 5.16490616779
rfemur 17.9700715668 7.10197800723 30.9439623935
rtibia -1.59118866861e-05
rfoot -13.8903582576 -0.551254225684
rtoes -36.1798398438
lfemur -40.5917309796 4.34071494966 -8.35770400626
ltibia 21.8730162595
lfoot -12.3777564472 12.6009706326
ltoes -14.024877984
